<svg width="98" height="51" viewBox="0 0 98 51" fill="none" xmlns="http://www.w3.org/2000/svg">
<path d="M88.2689 0.288948C82.8473 1.22989 80.6518 2.30524 81.4135 3.64944C81.7272 4.18712 81.996 4.27673 82.1752 3.91828C83.1162 2.39486 83.0266 4.0975 81.9064 9.78794C79.9349 19.6454 78.8596 27.2177 78.8596 30.9815C78.8596 34.1627 78.9492 34.5212 80.1589 35.7309C82.5337 38.0609 85.8942 37.2544 92.0327 32.8633C96.4237 29.7269 95.3932 29.5924 90.6437 32.7289C85.4461 36.1342 82.7577 37.12 81.6824 35.9998C80.6518 34.9692 80.4278 31.3399 81.0999 26.0079C81.8168 20.4071 81.9064 20.3175 87.6865 18.4356C93.1977 16.6882 93.825 16.3745 91.1814 16.6882C89.9716 16.8226 87.4176 17.4499 85.5805 18.0324C83.7435 18.6148 82.2201 19.0181 82.1752 18.9733C81.996 18.8389 85.0877 2.93253 85.3565 2.52927C85.6702 2.0364 91.0021 1.18508 94.6315 1.05066C96.4237 1.00585 97.5887 0.781818 97.5439 0.512981C97.3647 -0.0247002 91.0021 -0.203926 88.2689 0.288948Z" fill="#26A69A"/>
<path d="M72.3626 1.58835C69.9431 3.06697 67.6579 5.88978 65.8657 9.51911C64.1182 13.0588 64.1182 13.0588 64.1182 11.2666C64.1182 10.2808 64.2975 8.39895 64.4767 7.09956C64.7455 5.3521 64.6559 4.6352 64.2078 4.23194C63.7598 3.87349 63.4461 3.87349 63.0429 4.27674C61.7883 5.53133 62.326 32.3705 63.6702 34.8348C63.8942 35.2829 64.4319 35.6861 64.8351 35.6861C65.4176 35.6861 65.5072 35.2381 65.2384 32.4153C65.0592 30.6678 64.8351 28.2931 64.6559 27.1729L64.3871 25.1566L65.4624 26.0975C67.0307 27.5314 68.1508 27.9794 70.6152 28.2931C73.0347 28.6515 75.9024 28.0242 77.2914 26.9489C78.0531 26.3664 77.9187 26.3664 76.6193 26.9937C75.7679 27.3969 74.0205 27.7554 72.7211 27.8002C70.0775 27.8002 68.8229 27.1281 66.5826 24.3053L65.2384 22.6474L66.7618 21.4825C70.1223 18.9733 75.5887 12.9692 76.8433 10.4152C78.5011 6.96514 78.6356 3.51503 77.0673 1.85719C75.8127 0.512993 74.1997 0.423378 72.3626 1.58835ZM76.6193 4.27674C76.6193 8.35414 72.4523 14.3582 66.4482 19.0629C64.7903 20.3175 64.4767 20.4071 64.2526 19.7798C63.1773 17.0018 66.717 8.7574 70.7048 4.81442C74.5134 1.00586 76.6193 0.826637 76.6193 4.27674Z" fill="#26A69A"/>
<path d="M48.3911 4.14232C46.7333 5.57613 45.5235 7.81646 43.8656 12.6108L42.611 16.1953L42.5662 13.5069C42.5662 12.0283 42.7903 10.1016 43.0143 9.25027C43.3728 7.95088 43.328 7.59242 42.7007 7.09955C42.2526 6.7859 41.7597 6.7411 41.5357 6.96513C41.222 7.27878 40.4603 16.2849 40.3259 20.9C40.3259 21.9753 40.1019 22.0649 35.9797 22.7819L31.6334 23.5436L29.9756 22.1994C28.4522 20.9896 27.0632 20.3175 21.6416 17.9875C19.2668 17.0018 19.1324 15.7472 21.0591 12.7004C23.2546 9.25027 27.556 6.69629 30.5133 7.09955C31.275 7.23397 31.8127 7.09955 31.8127 6.7859C31.8127 5.84497 30.7373 5.21767 29.1243 5.21767C25.5846 5.21767 19.2668 10.7737 18.5499 14.4478C18.1019 16.8226 19.2668 18.0772 24.4196 20.6759C31.3198 24.126 31.051 23.678 27.2424 25.4702C22.8514 27.621 20.611 29.3236 18.9084 31.9224C15.5479 36.9407 18.4603 41.511 24.6436 40.9285C27.556 40.6597 31.3198 38.957 32.6192 37.2544C34.7251 34.6108 35.0387 30.1301 33.3361 26.5904C32.888 25.6943 32.664 24.843 32.7984 24.7085C33.1121 24.3501 39.8778 23.0059 40.1019 23.2299C40.1915 23.3195 40.4603 26.3216 40.6396 29.8613C40.9532 35.3277 41.1324 36.3582 41.7149 36.4927C42.387 36.6271 42.5214 35.8654 42.7903 31.1159C43.1487 24.0812 43.1935 23.9916 44.7618 24.3053C46.4196 24.6637 48.9736 23.4539 50.4522 21.6169C52.5133 19.1077 52.6477 18.8837 52.8269 18.4356C52.9166 18.1668 53.3198 17.2706 53.7231 16.4193C54.8432 13.9102 54.664 8.1301 53.4094 5.80016C52.4685 4.0527 51.3035 2.97735 50.2282 2.97735C50.0041 2.97735 49.1528 3.51503 48.3911 4.14232ZM52.8718 5.75536C54.0815 8.39894 53.9919 12.3867 52.7373 15.5232L51.7068 17.9427L49.4665 17.8083C47.719 17.7187 46.9125 17.9427 45.5683 18.8389L43.9104 20.0038L44.1793 18.7493C44.941 15.2543 46.7781 9.33988 47.5846 7.72684C49.7353 3.47022 51.5276 2.79812 52.8718 5.75536ZM50.8555 18.6596C50.9899 18.8837 50.3626 19.9142 49.4665 20.9C46.6884 23.9468 43.9104 24.8878 43.9104 22.737C43.9104 21.6617 45.9267 19.1525 47.2261 18.6596C48.5255 18.122 50.5418 18.122 50.8555 18.6596ZM32.7536 27.7554C33.8738 32.012 32.0367 35.731 27.7353 37.8817C24.1507 39.6739 20.0733 39.8532 19.222 38.3297C18.5051 36.9407 18.998 34.5212 20.4766 32.4601C22.6721 29.234 30.4237 24.4397 31.6782 25.4702C31.9919 25.7391 32.4848 26.7696 32.7536 27.7554Z" fill="#26A69A"/>
<path d="M58.0245 3.51503C56.6803 7.27878 55.5601 25.6943 56.2322 33.5354C56.5011 37.1648 56.5907 37.4784 57.4868 37.4784H58.4726L58.5174 24.1261C58.5174 13.955 58.6966 9.96717 59.2343 7.23397C59.772 4.54558 59.8168 3.55984 59.4583 3.3358C58.6966 2.84293 58.2485 2.88774 58.0245 3.51503Z" fill="#26A69A"/>
<path d="M1.83707 7.59242C0.806518 10.236 0 20.0486 0 29.4132C0 39.4499 0.313646 41.6902 1.65784 41.4214C2.28514 41.287 2.37475 40.0324 2.41955 28.9652C2.46436 19.2869 2.68839 15.6576 3.31569 11.9835C3.98779 8.1301 4.03259 7.27877 3.49491 6.96513C2.55397 6.33783 2.24033 6.47225 1.83707 7.59242Z" fill="#18181B"/>
<path d="M10.9328 23.902C10.0815 24.7981 9.14055 26.1423 8.87171 26.8144C8.15481 28.3827 7.52751 28.4275 7.70674 26.9041C7.84116 25.8287 6.67619 24.3501 6.13851 24.9326C6.00409 25.067 5.78006 26.9937 5.64564 29.2788C5.33199 33.1322 5.3768 33.401 6.22812 33.8939C6.94503 34.2523 7.21387 34.2523 7.34829 33.8043C8.46845 29.9957 12.0082 23.678 13.3076 23.2747C13.666 23.1403 13.7108 24.1709 13.5764 26.8592C13.2628 31.6984 13.5764 32.9977 14.9654 32.9977C16.0408 32.9977 17.4746 31.5191 19.4013 28.4275C20.7006 26.3216 19.3116 26.456 17.4298 28.5619C16.4888 29.6373 15.7271 30.6678 15.6823 30.847C15.6823 31.0711 15.4583 31.2055 15.1894 31.2055C14.831 31.2055 14.7862 30.3094 15.0102 28.2931C15.3687 24.7085 14.6966 22.2442 13.3524 22.2442C12.8595 22.2442 11.7393 23.0059 10.9328 23.902Z" fill="#18181B"/>
<path d="M53.3198 40.4805C53.3198 40.6597 54.1263 42.0487 55.1121 43.5273C56.5907 45.7228 56.9043 46.619 56.9043 48.3216C56.9043 49.5314 57.1284 50.4723 57.3524 50.4723C57.6212 50.4723 57.8005 49.397 57.8005 48.0976C57.8005 46.1709 58.0693 45.2748 59.3687 43.3033C60.22 41.9591 60.9369 40.6597 60.9369 40.4356C60.9369 39.7187 59.6375 41.1526 58.4278 43.1688L57.218 45.23L55.6946 42.8104C54.3056 40.5701 53.3198 39.5843 53.3198 40.4805Z" fill="#18181B"/>
<path d="M64.6559 40.6149C62.9084 41.3318 61.7435 43.7065 61.9675 45.9917C62.2812 48.8145 64.163 50.4723 67.1203 50.4723C70.3911 50.4275 72.1386 48.5904 72.1386 45.0955C72.1386 43.5721 71.8698 42.9448 70.6152 41.6902C69.4054 40.4805 68.7333 40.1668 67.3891 40.2116C66.4034 40.2116 65.1936 40.3908 64.6559 40.6149ZM70.0775 42.2279C70.9288 43.124 71.2425 43.8858 71.2425 45.1851C71.2425 47.4703 70.6152 48.6353 68.8677 49.3522C66.8962 50.1587 65.1936 49.7106 63.8046 48.0976C60.3545 44.0202 66.3137 38.4642 70.0775 42.2279Z" fill="#18181B"/>
<path d="M76.216 40.7941C74.6926 41.6454 73.9757 43.2137 73.9308 45.678C73.9308 47.5151 74.1549 48.0528 75.2302 49.1729C76.5296 50.4275 77.2913 50.6515 79.9797 50.4723C82.1753 50.3379 82.5337 49.8898 82.6233 47.3807L82.6681 45.0955H81.0103C80.0693 45.0955 79.3076 45.2748 79.3076 45.5436C79.3076 45.7676 79.8453 45.9917 80.5622 45.9917C81.6824 45.9917 81.772 46.1261 81.7272 47.6495C81.6824 49.0833 81.5032 49.3522 80.383 49.6658C78.77 50.1139 77.1121 49.7106 75.8575 48.5456C74.3341 47.1566 74.4237 43.6617 75.9919 42.1383C76.9329 41.1526 77.4258 41.0181 78.994 41.1526C80.0245 41.287 81.2343 41.511 81.6824 41.6902C82.0856 41.9143 82.4441 41.8695 82.4441 41.6454C82.4441 40.346 78.0979 39.7635 76.216 40.7941Z" fill="#18181B"/>
<path d="M88.5826 40.4805C88.2689 41.0181 84.2363 50.1139 84.2363 50.2931C84.2363 50.3827 84.4604 50.4723 84.7292 50.4723C84.9532 50.4723 85.4013 49.845 85.6253 49.1281C86.1182 47.8287 86.2078 47.7839 88.8962 47.7839C91.5398 47.7839 91.6742 47.8287 92.1671 49.1281C92.4359 49.845 92.9288 50.4723 93.1977 50.4723C93.5113 50.4723 93.6457 50.2035 93.5113 49.8898C91.9431 45.9021 89.3443 40.1668 89.1203 40.1668C88.941 40.1668 88.6722 40.3012 88.5826 40.4805ZM89.2547 46.7982C88.1793 46.8878 87.1936 46.843 87.0592 46.7086C86.9247 46.5741 87.2832 45.3644 87.8657 43.9306L88.941 41.4214L90.106 44.0202L91.271 46.6638L89.2547 46.7982Z" fill="#18181B"/>
</svg>
