<?xml version="1.0" encoding="utf-8" ?><svg xmlns="http://www.w3.org/2000/svg" xmlns:xlink="http://www.w3.org/1999/xlink" width="2048" height="2048" viewBox="0 0 2048 2048"><path fill="white" d="M0 0L2048 0L2048 2048L0 2048L0 0Z"/><path fill="#1D282A" d="M359.304 909.738C379.129 910.023 393.612 911.409 412.746 906.1C412.263 925.032 412.621 945.206 412.637 964.228C421.891 944.32 431.746 928.87 451.41 918.165C502.571 890.313 560.082 920.162 585.571 968.016C619.386 1031.5 592.581 1119.57 528.862 1152.89C479.621 1178.64 439.832 1162.17 415.725 1113.99C414.614 1114.74 413.495 1115.47 412.371 1116.2C413.294 1125.65 412.517 1141.35 412.651 1151.11C413.137 1186.42 410.183 1222.04 415.518 1257.02L359.22 1256.96C363.802 1230.75 362.541 1206.15 362.647 1179.75L362.67 1076.03L362.734 985.975C362.755 960.637 363.907 934.557 359.304 909.738Z"/><path fill="#EFF1F1" d="M412.371 1116.2C412.788 1111.5 412.622 1107.06 415.725 1113.99C414.614 1114.74 413.495 1115.47 412.371 1116.2Z"/><path fill="white" d="M464.716 920.298C493.335 918.934 513.933 944.481 525.839 967.383C553.719 1021.02 562.746 1133.1 491.663 1157.68C476.869 1160.21 461.691 1158.5 449.695 1149.25C413.956 1121.44 410.71 1081.6 410.85 1040.14C410.991 998.381 410.039 929.271 464.716 920.298Z"/><path fill="#1D282A" d="M1295.74 909.821C1308.2 909.949 1320.33 910.055 1332.76 909.103C1337.09 908.771 1346.16 906.406 1348.92 906.901C1349.98 915.972 1347.17 948.289 1351.47 953.795C1351.57 953.921 1351.66 954.05 1351.76 954.178C1372.68 913.619 1408.08 899.982 1453.01 911.063C1480.88 918.895 1506.91 942.213 1520.05 967.46C1551.64 1027.56 1527.71 1122.07 1465.59 1153.72C1411.65 1181.2 1372.25 1152.21 1348.19 1103.61C1348.3 1130.96 1348.28 1158.31 1348.11 1185.66C1348.04 1210.49 1347.1 1232.15 1351.29 1256.87L1295.51 1256.79C1299.33 1228.34 1298.55 1206.22 1298.41 1177.47C1298.21 1150.4 1298.19 1123.34 1298.34 1096.28C1298.63 1059.4 1298.67 1022.52 1298.44 985.647C1298.43 961.749 1299.9 932.874 1295.74 909.821Z"/><path fill="#EFF1F1" d="M1351.76 954.178C1351.41 955.547 1350.61 958.753 1349.28 959.439C1349.22 959.42 1348.84 959.463 1348.82 959.304C1347.91 950.806 1348.06 912.191 1348.92 906.901C1349.98 915.972 1347.17 948.289 1351.47 953.795C1351.57 953.921 1351.66 954.05 1351.76 954.178Z"/><path fill="white" d="M1395.72 921.288C1453.58 916.748 1482.15 1001.37 1483.21 1046.76C1484.21 1089.98 1478.02 1138.05 1433.17 1155.67C1391.38 1168.54 1359.48 1125.97 1350.67 1090.37C1346.19 1072.28 1347.32 1055.25 1347.25 1036.82C1347.14 1005.71 1346.95 972.911 1363.19 945.179C1370.95 931.952 1380.93 924.842 1395.72 921.288Z"/><path fill="#1D282A" d="M1662.33 910.607C1731.5 905.1 1792.09 956.563 1797.85 1025.71C1803.61 1094.85 1752.37 1155.63 1683.25 1161.64C1613.77 1167.69 1552.6 1116.13 1546.81 1046.62C1541.02 977.12 1592.81 916.143 1662.33 910.607Z"/><path fill="white" d="M1653.09 913.237C1739.21 908.939 1787.12 1137.84 1689.54 1159.77C1605.76 1164.67 1553.49 934.307 1653.09 913.237Z"/><path fill="#1D282A" d="M213.491 910.53C282.606 905.786 342.519 957.883 347.42 1026.99C352.322 1096.09 300.362 1156.12 231.27 1161.18C161.955 1166.26 101.687 1114.09 96.7698 1044.76C91.8524 975.438 144.154 915.29 213.491 910.53Z"/><path fill="white" d="M198.269 914.3C283.703 902.463 339.129 1122.63 244.893 1159.23C160.005 1175.67 104.856 944.225 198.269 914.3Z"/><path fill="#1D282A" d="M906.176 906.267L906.765 906.771C909.114 916.289 907.26 968.119 907.517 982.014C912.264 968.568 916.731 958.027 925.166 946.108C950.688 909.875 999.402 893.924 1036.9 922.42C1065.71 944.316 1077.84 977.008 1078.72 1012.39C1079.04 1025.2 1078.47 1038.43 1078.79 1051.24C1079.73 1088.45 1075.86 1127.77 1081.58 1164.52C1061.85 1164.59 1042.11 1164.54 1022.37 1164.37C1029.13 1127.61 1024.13 1084.09 1025.68 1046.38C1026.11 1035.85 1025.98 1023.16 1025.39 1012.76C1024.63 989.669 1018.43 964.215 999.024 949.591C987.187 940.634 972.125 937.074 957.531 939.783C941.976 942.536 929.322 951.608 920.501 964.44C914.527 973.231 910.536 983.216 908.802 993.702C906.342 1008.13 907.481 1048.56 907.702 1064.64C908.12 1094.98 905.155 1135.28 910.617 1164.24C890.86 1164.08 871.103 1164.17 851.348 1164.5C857.48 1140.3 854.495 1071.71 855.057 1043.37C855.744 1008.77 854.885 968.126 854.664 932.97C854.622 926.276 852.968 916.413 851.565 909.738C871.117 909.999 887.369 911.527 906.176 906.267Z"/><path fill="#1D282A" d="M725.018 908.351C769.219 904.93 804.308 931.94 826.722 968.414C832.359 977.588 841.978 998.84 839.166 1009.76C835.354 1012.83 676.893 1011.34 655.732 1011.18C655.708 1030 656.939 1042.52 663.843 1060.3C688.389 1123.5 760.937 1153.1 815.951 1105.16C824.777 1096.47 828.481 1089.45 834.564 1078.65C831.74 1094.22 824.78 1108.7 815.413 1121.39C798.021 1145.11 771.795 1160.82 742.671 1164.95C632.22 1180.93 579.745 1035.96 643.57 954.325C663.41 928.645 692.781 912.067 725.018 908.351Z"/><path fill="white" d="M713.862 914.242C762.771 912.002 773.778 968.191 772.944 1006.04L716.5 1005.91L655.624 1006.07C658.246 968.707 674.077 924.853 713.862 914.242Z"/><path fill="#1D282A" d="M1177.53 908.358C1216.12 905.24 1243.87 916.903 1274.51 938.415L1250.84 996.937C1249.72 978.093 1244.52 957.555 1232.31 942.243C1210.99 915.521 1163.77 906.448 1136.09 928.28C1129.6 933.398 1123.85 944.163 1124.03 952.439C1125.1 1002.55 1200.41 1010.2 1235.91 1025.64C1268.57 1039.73 1284.76 1058.73 1282.18 1094.62C1280.83 1113.26 1273.42 1128.35 1259.35 1140.37C1234.12 1161.94 1204.23 1166.74 1172.07 1164.57C1132.03 1158.06 1106.3 1139.32 1088.7 1103.01C1096.25 1089.65 1106.64 1074.44 1114.87 1060.43C1123.09 1086.76 1132.53 1111.87 1153.41 1131.71C1177.62 1154.7 1222.99 1166.94 1248.64 1139.08C1259.46 1126.26 1262.27 1102.19 1246.75 1091.42C1228.99 1079.08 1204.42 1073.78 1184.43 1065.86C1164.05 1057.79 1137.47 1051.36 1119.99 1038.1C1090.95 1016.07 1091.17 966.086 1113.98 939.725C1131.92 918.424 1150.89 911.314 1177.53 908.358Z"/><path fill="#1D282A" d="M1863.13 821.537L1865.2 822.547C1867.43 826.653 1866.47 901.051 1866.47 911.136C1887.68 910.738 1908.97 911.489 1930.19 910.792C1936.15 910.596 1943.94 910.567 1948.78 914.404L1947.21 916.15C1941.61 917.235 1925.44 916.908 1918.95 916.919L1866.7 916.95L1866.59 1025.43C1866.54 1049.57 1860.64 1110.38 1883.12 1124.75C1908.74 1141.12 1934.94 1114.66 1948.61 1093.96C1944.93 1112.82 1943.79 1119.25 1934.04 1135.78C1911.6 1168.52 1866.9 1178.9 1836.55 1151.15C1806.67 1123.83 1813.48 1065.29 1813.68 1027.88L1813.68 916.937C1805.31 916.95 1769.64 918.354 1764.09 914.626L1764.5 912.847C1774.14 906.616 1801.06 916.708 1823.48 902.176C1843.25 890.733 1856.5 869.128 1859.72 846.686C1860.77 839.357 1860.99 828.69 1863.13 821.537Z"/></svg>